<svg width="240" height="43" viewBox="0 0 240 43" fill="none" xmlns="http://www.w3.org/2000/svg">
<path fill-rule="evenodd" clip-rule="evenodd" d="M20 19.887C20 8.90779 28.9584 0 40 0C40 10.9792 31.0416 19.887 20 19.887Z" fill="black"/>
<path fill-rule="evenodd" clip-rule="evenodd" d="M20 19.887C20 30.991 28.9584 40 40 40C40 28.896 31.0416 19.887 20 19.887Z" fill="black"/>
<path fill-rule="evenodd" clip-rule="evenodd" d="M20 19.887C20 8.90779 11.0416 0 0 0C0 10.9792 8.9584 19.887 20 19.887Z" fill="#4169E1"/>
<path fill-rule="evenodd" clip-rule="evenodd" d="M20 19.887C20 30.991 11.0416 40 0 40C0 28.896 8.9584 19.887 20 19.887Z" fill="black"/>
<path d="M72 36L64.16 12.6H64C64.0267 13.1333 64.0667 13.8933 64.12 14.88C64.1733 15.84 64.2133 16.8933 64.24 18.04C64.2933 19.16 64.32 20.2133 64.32 21.2V36H59.72V7.44H66.84L74.36 29.88H74.52L82.36 7.44H89.48V36H84.6V20.96C84.6 20.0533 84.6133 19.0667 84.64 18C84.6933 16.9067 84.7333 15.88 84.76 14.92C84.8133 13.9333 84.8533 13.1733 84.88 12.64H84.72L76.56 36H72ZM106.548 36H94.5484V33.08L97.9884 31.8V11.68L94.5484 10.36V7.44H106.548V10.36L103.108 11.68V31.8L106.548 33.08V36ZM135.953 36H129.593L116.073 13.6H115.913C115.94 14.1867 115.966 14.8133 115.993 15.48C116.046 16.12 116.086 16.7867 116.113 17.48C116.14 18.1467 116.166 18.8267 116.193 19.52C116.22 20.2133 116.246 20.9067 116.273 21.6V36H111.673V7.44H117.993L131.473 29.68H131.593C131.566 29.1467 131.54 28.5733 131.513 27.96C131.486 27.32 131.46 26.6667 131.433 26C131.433 25.3333 131.42 24.6533 131.393 23.96C131.366 23.2667 131.34 22.6 131.313 21.96V7.44H135.953V36ZM153.072 36H141.072V33.08L144.512 31.8V11.68L141.072 10.36V7.44H153.072V10.36L149.632 11.68V31.8L153.072 33.08V36ZM183.717 21.68C183.717 23.8933 183.437 25.9067 182.877 27.72C182.343 29.5067 181.517 31.0533 180.397 32.36C179.303 33.6667 177.903 34.6533 176.197 35.32L183.077 42.8H176.277L170.957 36.4C170.85 36.4 170.73 36.4 170.597 36.4C170.49 36.4 170.383 36.4 170.277 36.4C167.983 36.4 165.983 36.0533 164.277 35.36C162.597 34.64 161.21 33.64 160.117 32.36C159.023 31.0533 158.197 29.4933 157.637 27.68C157.103 25.8667 156.837 23.8533 156.837 21.64C156.837 18.68 157.317 16.1067 158.277 13.92C159.263 11.7333 160.743 10.04 162.717 8.84C164.717 7.61333 167.25 7 170.317 7C173.33 7 175.823 7.61333 177.797 8.84C179.77 10.04 181.25 11.7467 182.237 13.96C183.223 16.1467 183.717 18.72 183.717 21.68ZM162.237 21.68C162.237 23.84 162.517 25.6933 163.077 27.24C163.663 28.7867 164.543 29.9733 165.717 30.8C166.917 31.6267 168.437 32.04 170.277 32.04C172.17 32.04 173.703 31.6267 174.877 30.8C176.05 29.9733 176.917 28.7867 177.477 27.24C178.037 25.6933 178.317 23.84 178.317 21.68C178.317 18.4533 177.69 15.92 176.437 14.08C175.183 12.24 173.143 11.32 170.317 11.32C168.45 11.32 166.917 11.7333 165.717 12.56C164.543 13.3867 163.663 14.5733 163.077 16.12C162.517 17.6667 162.237 19.52 162.237 21.68ZM212.438 25.92C212.438 27.8933 212.011 29.68 211.158 31.28C210.331 32.8533 209.065 34.1067 207.358 35.04C205.651 35.9467 203.491 36.4 200.878 36.4C197.171 36.4 194.358 35.44 192.438 33.52C190.518 31.5733 189.558 29.0133 189.558 25.84V7.44H194.678V25.32C194.678 27.64 195.211 29.3467 196.278 30.44C197.345 31.5067 198.931 32.04 201.038 32.04C202.531 32.04 203.731 31.7867 204.638 31.28C205.571 30.7733 206.251 30.0133 206.678 29C207.131 27.96 207.358 26.72 207.358 25.28V7.44H212.438V25.92ZM235.921 36H219.681V7.44H235.921V11.72H224.801V19H235.201V23.28H224.801V31.68H235.921V36Z" fill="black"/>
</svg>
