<svg xmlns="http://www.w3.org/2000/svg" version="1.1" viewBox="-5.0 -10.0 110.0 135.0">
 <path d="m88.309 55.691c-1.8711-20.34-8.8398-25.809-10.461-26.809-2.9414-5.6719-9.8594-8.7305-11.609-9.4297-0.71875-1.6211-3.3203-7.1484-5.8711-8.6094-3.0391-1.7383-14.309-1.9688-18.648-1.1094-4.7188 0.94141-7.7617 7.75-8.4492 9.4414-1.7188 0.83984-9.1602 4.6914-12.129 9.7109-1.6484 0.92969-8.6211 6.0781-9.4688 27-0.078125 2.0391 1.2109 3.8906 3.1406 4.5 1.3711 0.42969 3.6016 0.60938 5.6289 0.60938 0.42188 0 0.82031-0.011719 1.2109-0.03125 0 9.2109 0.30859 18.988 1.3594 26.078 0.19922 1.3516 1.2891 2.3906 2.7812 2.6602 3.5508 0.62891 10.43 1.0391 16.281 1.0391 3.7383 0 7.0586-0.16016 8.8281-0.53906 1.4297 0.19141 10.352 1.25 22.961-0.48828 1.5508-0.21094 2.7617-1.4883 2.9414-3.1016 0.46094-4.2188 1.0117-14.5 1.1797-25.02h0.039063 0.57812c2.5391 0 4.6406-0.25 6.2617-0.73047 2.2109-0.67188 3.6602-2.8516 3.4414-5.1914zm-46.199-43.992c4.5703-0.91016 15.059-0.37891 17.262 0.87891 1.8008 1.0312 4.1211 5.6094 5.0391 7.6914-1.0508 2.8984-4.1016 9.6016-7.6484 11.07-0.050781 0.019531-0.16016 0.070312-0.41016-0.039063-1.3711-0.57812-3.3398-4-4.7383-7.3516 1.8711-0.94141 6.0703-3.4883 7.7109-8.0508 0.19141-0.51953-0.078125-1.0898-0.60156-1.2812-0.51953-0.19141-1.0898 0.078124-1.2812 0.60156-1.6602 4.6211-6.6602 6.9414-7.3906 7.2617-1.3008-0.60156-6.4414-3.1992-7.5898-7.7109-0.14063-0.53125-0.67969-0.85938-1.2188-0.71875-0.53906 0.14062-0.85938 0.67969-0.71875 1.2188 1.2305 4.8281 6 7.6914 8.0898 8.7383-2 3.7812-4.4805 6.8516-5.3984 6.6914-3.6094-0.73047-6.9414-7.7188-8.1016-10.781 0.94922-2.3516 3.6797-7.5586 6.9805-8.2188zm-15.969 76.051c-0.23828-0.039062-1.0391-0.23828-1.1484-0.98047-2.5703-17.512-0.64844-51.789-0.62891-52.141 0.03125-0.55078-0.39062-1.0195-0.94141-1.0586-0.53906-0.019531-1.0195 0.39063-1.0586 0.94141-0.011719 0.19922-0.64844 11.5-0.71094 24.461-2.4688 0.10156-5.0117-0.10156-6.2383-0.48828-1.0703-0.33984-1.7891-1.3789-1.75-2.5195 0.87891-21.738 8.5117-25.379 8.5703-25.41 0.21094-0.089844 0.37891-0.23828 0.48828-0.44141 2.2891-4.1211 8.4102-7.6016 10.781-8.8281 1.1719 2.9102 4.6016 10.41 9.3086 11.371 2.0312 0.42188 4.2891-2.3008 5.9492-4.9102 0.019531 11.512 0.12891 45.898 0.82031 60.648-4.8984 0.66016-17.84 0.33984-23.461-0.64844zm58.148-28.789c-1.5391 0.46094-3.6484 0.67969-6.2383 0.64062h-0.050781c0.12891-10.801-0.16016-21.48-1.3594-25.762-0.14844-0.53125-0.69922-0.83984-1.2305-0.69141-0.53125 0.14844-0.83984 0.69922-0.69141 1.2305 2.2891 8.1484 1.0898 42.898 0.089844 52.012-0.058594 0.58984-0.51172 1.2383-1.2188 1.3398-11.328 1.5586-19.781 0.78906-21.988 0.53906-0.71094-15.09-0.80078-50.75-0.82031-61.34 1.1992 2.4688 2.9609 5.4297 4.8086 6.2109 0.35156 0.14844 0.71094 0.21875 1.0508 0.21875 0.30859 0 0.62109-0.058594 0.91016-0.17969 4.3789-1.8281 7.5-8.9883 8.5312-11.641 2.2109 0.96875 7.8516 3.8086 10.129 8.4805 0.10156 0.19922 0.26172 0.35938 0.46094 0.46094 0.078125 0.039062 7.7109 4.1406 9.6719 25.379 0.12891 1.3984-0.71875 2.6992-2.0312 3.0898z"/>
 <path d="m54.77 42.211h0.050781c0.98828-0.019532 1.7812-0.85156 1.75-1.8398-0.011718-0.48047-0.21094-0.92969-0.55859-1.2617-0.35156-0.32812-0.82031-0.51172-1.2891-0.48828-0.48047 0.011718-0.92969 0.21094-1.2617 0.55859-0.32813 0.35156-0.51172 0.80078-0.48828 1.2812 0.011719 0.48047 0.21094 0.92969 0.55859 1.2617 0.33984 0.32031 0.76953 0.5 1.2383 0.5z"/>
 <path d="m54.988 51.148h0.050781c0.48047-0.011719 0.92969-0.21094 1.2617-0.55859 0.32812-0.35156 0.51172-0.80078 0.48828-1.2812-0.019531-0.48047-0.21094-0.92969-0.55859-1.2617-0.35156-0.32812-0.80078-0.51172-1.2891-0.48828-0.98828 0.019531-1.7812 0.85156-1.75 1.8398 0.011719 0.48047 0.21094 0.92969 0.55859 1.2617 0.33984 0.32031 0.78125 0.5 1.2383 0.5z"/>
 <path d="m55.211 59.68h0.039062c0.98828-0.03125 1.7812-0.85156 1.75-1.8398-0.011719-0.48047-0.21094-0.92969-0.55859-1.2617-0.35156-0.32812-0.80859-0.48828-1.2812-0.48828-0.48047 0.011718-0.92969 0.21094-1.2617 0.55859-0.32813 0.35156-0.51172 0.80078-0.5 1.2812 0.019531 0.98047 0.82812 1.75 1.8008 1.75z"/>
 <path d="m55.43 68.762h0.039062c0.98828-0.019531 1.7812-0.85156 1.75-1.8398-0.03125-0.98047-0.82812-1.75-1.8008-1.75h-0.039063c-0.48047 0.011719-0.92969 0.21094-1.2617 0.55859-0.32813 0.35156-0.51172 0.80078-0.48828 1.2812 0.011719 0.48047 0.21094 0.92969 0.55859 1.2617 0.33984 0.32031 0.78125 0.5 1.2383 0.5z"/>
 <path d="m55.609 74.102c-0.48047 0.011719-0.92969 0.21094-1.2617 0.55859-0.32812 0.35156-0.51172 0.80078-0.48828 1.2812 0.019531 0.98047 0.82812 1.75 1.8008 1.75h0.039063c0.98828-0.03125 1.7812-0.85156 1.75-1.8398-0.011719-0.48047-0.21094-0.92969-0.55859-1.2617-0.35156-0.32812-0.80859-0.48828-1.2812-0.48828z"/>
<text x="0.0" y="117.5" font-size="5.0" font-weight="bold" font-family="Arbeit Regular, Helvetica, Arial-Unicode, Arial, Sans-serif" fill="#000000">Created by inmyheart</text><text x="0.0" y="122.5" font-size="5.0" font-weight="bold" font-family="Arbeit Regular, Helvetica, Arial-Unicode, Arial, Sans-serif" fill="#000000">from Noun Project</text></svg>