<svg width="89" height="96" viewBox="0 0 89 96" fill="none" xmlns="http://www.w3.org/2000/svg">
<path fill-rule="evenodd" clip-rule="evenodd" d="M45 29.8305C45 13.3617 58.4376 0 75 0C75 16.4688 61.5624 29.8305 45 29.8305Z" fill="black"/>
<path fill-rule="evenodd" clip-rule="evenodd" d="M45 29.8305C45 46.4865 58.4376 60 75 60C75 43.344 61.5624 29.8305 45 29.8305Z" fill="black"/>
<path fill-rule="evenodd" clip-rule="evenodd" d="M45 29.8305C45 13.3617 31.5624 0 15 0C15 16.4688 28.4376 29.8305 45 29.8305Z" fill="#4169E1"/>
<path fill-rule="evenodd" clip-rule="evenodd" d="M45 29.8305C45 46.4865 31.5624 60 15 60C15 43.344 28.4376 29.8305 45 29.8305Z" fill="black"/>
<path d="M88.8941 92H80.774V77.72H88.8941V79.86H83.334V83.5H88.534V85.64H83.334V89.84H88.8941V92Z" fill="black"/>
<path d="M77.1526 86.96C77.1526 87.9467 76.9393 88.84 76.5126 89.64C76.0993 90.4267 75.466 91.0533 74.6126 91.52C73.7593 91.9733 72.6793 92.2 71.3727 92.2C69.5193 92.2 68.1126 91.72 67.1526 90.76C66.1926 89.7867 65.7126 88.5067 65.7126 86.92V77.72H68.2727V86.66C68.2727 87.82 68.5393 88.6733 69.0726 89.22C69.606 89.7533 70.3993 90.02 71.4527 90.02C72.1993 90.02 72.7993 89.8933 73.2526 89.64C73.7193 89.3867 74.0593 89.0067 74.2727 88.5C74.4993 87.98 74.6126 87.36 74.6126 86.64V77.72H77.1526V86.96Z" fill="black"/>
<path d="M62.7919 84.84C62.7919 85.9467 62.6519 86.9533 62.3719 87.86C62.1052 88.7533 61.6919 89.5267 61.1319 90.18C60.5852 90.8333 59.8852 91.3267 59.0319 91.66L62.4719 95.4H59.0719L56.4119 92.2C56.3585 92.2 56.2985 92.2 56.2319 92.2C56.1785 92.2 56.1252 92.2 56.0719 92.2C54.9252 92.2 53.9252 92.0267 53.0719 91.68C52.2319 91.32 51.5385 90.82 50.9919 90.18C50.4452 89.5267 50.0319 88.7467 49.7519 87.84C49.4852 86.9333 49.3519 85.9267 49.3519 84.82C49.3519 83.34 49.5919 82.0533 50.0719 80.96C50.5652 79.8667 51.3052 79.02 52.2919 78.42C53.2919 77.8067 54.5585 77.5 56.0919 77.5C57.5985 77.5 58.8452 77.8067 59.8319 78.42C60.8185 79.02 61.5585 79.8733 62.0519 80.98C62.5452 82.0733 62.7919 83.36 62.7919 84.84ZM52.0519 84.84C52.0519 85.92 52.1919 86.8467 52.4719 87.62C52.7652 88.3933 53.2052 88.9867 53.7919 89.4C54.3919 89.8133 55.1519 90.02 56.0719 90.02C57.0185 90.02 57.7852 89.8133 58.3719 89.4C58.9585 88.9867 59.3919 88.3933 59.6719 87.62C59.9519 86.8467 60.0919 85.92 60.0919 84.84C60.0919 83.2267 59.7785 81.96 59.1519 81.04C58.5252 80.12 57.5052 79.66 56.0919 79.66C55.1585 79.66 54.3919 79.8667 53.7919 80.28C53.2052 80.6933 52.7652 81.2867 52.4719 82.06C52.1919 82.8333 52.0519 83.76 52.0519 84.84Z" fill="black"/>
<path d="M47.4695 92H41.4695V90.54L43.1895 89.9V79.84L41.4695 79.18V77.72H47.4695V79.18L45.7495 79.84V89.9L47.4695 90.54V92Z" fill="black"/>
<path d="M38.9101 92H35.7301L28.9701 80.8H28.8901C28.9035 81.0933 28.9168 81.4067 28.9301 81.74C28.9568 82.06 28.9768 82.3933 28.9901 82.74C29.0035 83.0733 29.0168 83.4133 29.0301 83.76C29.0435 84.1067 29.0568 84.4533 29.0701 84.8V92H26.7701V77.72H29.9301L36.6701 88.84H36.7301C36.7168 88.5733 36.7035 88.2867 36.6901 87.98C36.6768 87.66 36.6635 87.3333 36.6501 87C36.6501 86.6667 36.6435 86.3267 36.6301 85.98C36.6168 85.6333 36.6035 85.3 36.5901 84.98V77.72H38.9101V92Z" fill="black"/>
<path d="M24.2078 92H18.2078V90.54L19.9278 89.9V79.84L18.2078 79.18V77.72H24.2078V79.18L22.4878 79.84V89.9L24.2078 90.54V92Z" fill="black"/>
<path d="M6.93358 92L3.01358 80.3H2.93358C2.94691 80.5667 2.96691 80.9467 2.99358 81.44C3.02024 81.92 3.04025 82.4467 3.05358 83.02C3.08025 83.58 3.09358 84.1067 3.09358 84.6V92H0.793579V77.72H4.35358L8.11358 88.94H8.19358L12.1136 77.72H15.6736V92H13.2336V84.48C13.2336 84.0267 13.2402 83.5333 13.2536 83C13.2802 82.4533 13.3002 81.94 13.3136 81.46C13.3402 80.9667 13.3602 80.5867 13.3736 80.32H13.2936L9.21358 92H6.93358Z" fill="black"/>
</svg>
