<svg width="23" height="24" viewBox="0 0 23 24" fill="none" xmlns="http://www.w3.org/2000/svg">
<path d="M16.3512 16.0319C18.0229 14.2787 18.9604 11.9524 18.9717 9.53003C18.983 7.10766 18.0671 4.77276 16.4118 3.0041C14.7566 1.23545 12.4874 0.167049 10.0696 0.0179894C7.65182 -0.13107 5.2686 0.650502 3.40864 2.20244C1.54868 3.75439 0.352915 5.9591 0.066546 8.36451C-0.219823 10.7699 0.4249 13.1937 1.86852 15.139C3.31213 17.0842 5.44524 18.4035 7.83046 18.8262C10.2157 19.249 12.6723 18.7432 14.6965 17.4126L21.2839 24L22.7806 22.5033L16.3512 16.0319ZM13.1893 15.8843C11.5771 16.8593 9.65553 17.1874 7.8112 16.8026C5.96688 16.4179 4.33676 15.3488 3.24895 13.8105C2.16113 12.2723 1.69637 10.379 1.94822 8.51192C2.20006 6.64479 3.14981 4.94237 4.6063 3.74729C6.0628 2.55222 7.91791 1.95322 9.79827 2.07084C11.6786 2.18847 13.4446 3.014 14.7408 4.38127C16.037 5.74854 16.7672 7.55605 16.7844 9.44C16.8016 11.324 16.1045 13.1445 14.8335 14.5352C14.3604 15.0579 13.8136 15.5088 13.2104 15.8738L13.1893 15.8843Z" fill="#4169E1"/>
</svg>
